# xmcd
#
# Track frame offsets:
#	150
#	18835
#	36427
#	49862
#	63773
#	80591
#	96923
#	112094
#	126024
#	142668
#
# Disc length: 2129 seconds
#
# Revision: 0
# Processed by: cddbd v1.5.2PL0 Copyright (c) Steve Scherf et al.
# Submitted via: audiograbber 1.83.01
#
DISCID=7f084f0a
DTITLE=Crystal Gayle - Miss The Mississippi
DYEAR=1979
DGENRE=Country
TTITLE0=Half The Way
TTITLE1=The Other Side Of Me
TTITLE2=Room For One More
TTITLE3=Don't Go My Love
TTITLE4=Dancing The Night Away
TTITLE5=It's Like We Never Said Goodbye
TTITLE6=The Blue Side
TTITLE7=A Little Bit Of The Rain
TTITLE8=Danger Zone
TTITLE9=Miss The Mississippi And You
EXTD=
EXTT0=
EXTT1=
EXTT2=
EXTT3=
EXTT4=
EXTT5=
EXTT6=
EXTT7=
EXTT8=
EXTT9=
PLAYORDER=
